<svg width="207" height="108" viewBox="0 0 207 108" fill="none" xmlns="http://www.w3.org/2000/svg">
<path d="M33.11 67.8298C32.87 67.6698 32.56 67.5898 32.19 67.5898C31.82 67.5898 31.51 67.6698 31.27 67.8298C31.03 67.9898 30.85 68.1998 30.75 68.4598C30.74 68.4898 30.72 68.5298 30.71 68.5598C30.95 68.6098 31.2 68.6598 31.45 68.7098C31.48 68.6198 31.51 68.5399 31.56 68.4799C31.68 68.2999 31.89 68.2098 32.2 68.2098C32.51 68.2098 32.72 68.2999 32.84 68.4799C32.92 68.6099 32.98 68.7798 33.01 68.9998C33.27 69.0498 33.54 69.0898 33.81 69.1398C33.79 68.8898 33.74 68.6598 33.65 68.4498C33.54 68.1898 33.36 67.9798 33.12 67.8198L33.11 67.8298Z" fill="white"/>
<path d="M39.7701 68.91C39.4401 68.77 39.1201 68.61 38.8101 68.46C38.8101 68.46 38.8201 68.48 38.8301 68.49C38.9501 68.67 39.0101 68.96 39.0101 69.34C39.0101 69.58 38.9901 69.78 38.9401 69.94C39.1901 69.97 39.4501 70.01 39.7001 70.04C39.7701 69.82 39.8001 69.59 39.8001 69.34C39.8001 69.19 39.7901 69.05 39.7601 68.91H39.7701Z" fill="white"/>
<path d="M37.5601 68.48C37.6801 68.3 37.8901 68.21 38.2001 68.21C38.2601 68.21 38.3201 68.21 38.3701 68.22C38.0701 68.06 37.7801 67.89 37.5001 67.71C37.4201 67.74 37.3501 67.78 37.2801 67.83C37.0401 67.99 36.8601 68.2 36.7601 68.46C36.6501 68.72 36.5901 69.02 36.5901 69.34C36.5901 69.43 36.5901 69.52 36.6001 69.6C36.8601 69.64 37.1301 69.68 37.4001 69.72C37.3801 69.61 37.3701 69.48 37.3701 69.34C37.3701 68.95 37.4301 68.67 37.5501 68.49L37.5601 68.48Z" fill="white"/>
<path d="M40.9399 69.3801V70.2001C41.1899 70.2301 41.4399 70.2601 41.6999 70.2901V69.6401C41.4399 69.5501 41.1899 69.4601 40.9399 69.3701V69.3801Z" fill="white"/>
<path d="M45.4099 70.6102C45.1099 70.5502 44.7999 70.4902 44.5099 70.4202C44.4199 70.4402 44.3199 70.4602 44.2099 70.4602C43.9199 70.4602 43.7099 70.3702 43.5899 70.2002C43.2799 70.1202 42.9799 70.0402 42.6799 69.9502C42.6999 70.0402 42.7299 70.1302 42.7699 70.2102C42.7999 70.2902 42.8399 70.3602 42.8899 70.4302C43.6799 70.5202 44.4899 70.6102 45.3199 70.7002C45.3599 70.6702 45.3899 70.6302 45.4199 70.6002L45.4099 70.6102Z" fill="white"/>
<path d="M46.2 70.8C46.84 70.87 47.49 70.93 48.15 71C47.5 70.94 46.85 70.85 46.2 70.75V70.81V70.8Z" fill="white"/>
<path d="M20.4799 64.0201C20.3599 63.9101 20.1699 63.8501 19.9099 63.8501C20.0399 64.2101 20.2999 64.5701 20.6699 64.9101V64.5001C20.6699 64.3001 20.6099 64.1401 20.4899 64.0201H20.4799Z" fill="white"/>
<path d="M24.6201 66.3898C24.7301 66.1298 24.7901 65.8398 24.7901 65.5098C24.7901 65.1798 24.7401 64.8998 24.6201 64.6298C24.5101 64.3698 24.3301 64.1598 24.0901 63.9998C23.8501 63.8398 23.5401 63.7598 23.1701 63.7598C22.8001 63.7598 22.4901 63.8398 22.2501 63.9998C22.0101 64.1598 21.8301 64.3698 21.7301 64.6298C21.6201 64.8898 21.5601 65.1898 21.5601 65.5098C21.5601 65.5298 21.5601 65.5598 21.5601 65.5798C21.8101 65.7398 22.1001 65.8898 22.4001 66.0498C22.3601 65.8998 22.3501 65.7198 22.3501 65.5098C22.3501 65.1198 22.4101 64.8398 22.5301 64.6598C22.6501 64.4798 22.8601 64.3898 23.1701 64.3898C23.4801 64.3898 23.6901 64.4798 23.8101 64.6598C23.9301 64.8398 23.9901 65.1298 23.9901 65.5098C23.9901 65.8898 23.9301 66.1698 23.8101 66.3598C23.7501 66.4498 23.6601 66.5198 23.5601 66.5698C23.8001 66.6698 24.0501 66.7598 24.3101 66.8598C24.4501 66.7298 24.5501 66.5798 24.6301 66.3998L24.6201 66.3898Z" fill="white"/>
<path d="M27.3299 66.5801H26.6699V64.5001C26.6699 64.3001 26.6099 64.1401 26.4899 64.0201C26.3699 63.9001 26.1799 63.8501 25.9099 63.8501H25.2099V64.4501H25.9099V66.5801H25.1599V67.1501C25.1599 67.1501 25.2099 67.1701 25.2399 67.1801H27.3199V66.5801H27.3299Z" fill="white"/>
<path d="M30.1001 63.9998C29.8601 63.8398 29.5501 63.7598 29.1801 63.7598C28.8101 63.7598 28.5001 63.8398 28.2601 63.9998C28.0201 64.1598 27.8401 64.3698 27.7401 64.6298C27.6301 64.8898 27.5701 65.1898 27.5701 65.5098C27.5701 65.8298 27.6201 66.1298 27.7401 66.3898C27.8501 66.6498 28.0201 66.8598 28.2601 67.0198C28.5001 67.1798 28.8101 67.2498 29.1801 67.2498C29.5501 67.2498 29.8601 67.1698 30.1001 67.0198C30.3401 66.8598 30.5201 66.6498 30.6301 66.3898C30.7401 66.1298 30.8001 65.8398 30.8001 65.5098C30.8001 65.1798 30.7501 64.8998 30.6301 64.6298C30.5201 64.3698 30.3401 64.1598 30.1001 63.9998ZM29.8201 66.3598C29.7001 66.5398 29.4801 66.6298 29.1801 66.6298C28.8801 66.6298 28.6601 66.5398 28.5401 66.3598C28.4201 66.1798 28.3601 65.8998 28.3601 65.5098C28.3601 65.1198 28.4201 64.8398 28.5401 64.6598C28.6601 64.4798 28.8701 64.3898 29.1801 64.3898C29.4901 64.3898 29.7001 64.4798 29.8201 64.6598C29.9401 64.8398 30.0001 65.1298 30.0001 65.5098C30.0001 65.8898 29.9401 66.1698 29.8201 66.3598Z" fill="white"/>
<path d="M32.6799 64.5001C32.6799 64.3001 32.6199 64.1401 32.4999 64.0201C32.3799 63.9001 32.1899 63.8501 31.9199 63.8501H31.2199V64.4501H31.9199V66.5801H31.1699V67.1801H33.3399V66.5801H32.6799V64.5001Z" fill="white"/>
<path d="M33.7501 64.6401C33.6401 64.9001 33.5801 65.2001 33.5801 65.5201C33.5801 65.8401 33.6301 66.1401 33.7501 66.4001C33.8601 66.6601 34.0301 66.8701 34.2701 67.0301C34.5101 67.1901 34.8201 67.2601 35.1901 67.2601C35.5601 67.2601 35.8701 67.1801 36.1101 67.0301C36.1801 66.9801 36.2501 66.9301 36.3101 66.8701C36.1301 66.7201 35.9501 66.5701 35.7901 66.4201C35.6601 66.5701 35.4601 66.6401 35.1901 66.6401C34.8901 66.6401 34.6701 66.5501 34.5501 66.3701C34.4301 66.1901 34.3701 65.9101 34.3701 65.5201C34.3701 65.2201 34.4101 64.9701 34.4801 64.8001C34.3501 64.5701 34.2401 64.3401 34.1501 64.1001C33.9701 64.2501 33.8301 64.4301 33.7401 64.6501L33.7501 64.6401Z" fill="white"/>
<path d="M21.0901 63.2C21.3301 63.04 21.5101 62.83 21.6201 62.57C21.7301 62.31 21.7901 62.02 21.7901 61.69C21.7901 61.36 21.7401 61.08 21.6201 60.81C21.6101 60.77 21.5901 60.74 21.5701 60.71C21.3401 60.88 21.1401 61.05 20.9501 61.22C20.9801 61.35 20.9901 61.51 20.9901 61.69C20.9901 62.07 20.9301 62.35 20.8101 62.54C20.6901 62.73 20.4701 62.81 20.1701 62.81C20.0601 62.81 19.9601 62.8 19.8801 62.77C19.8201 62.98 19.8001 63.19 19.8101 63.4C19.9201 63.42 20.0401 63.43 20.1701 63.43C20.5401 63.43 20.8501 63.35 21.0901 63.2Z" fill="white"/>
<path d="M22.9099 60.62V62.75H22.1599V63.35H24.3299V62.75H23.6699V60.67C23.6699 60.47 23.6099 60.31 23.4899 60.19C23.3699 60.07 23.1799 60.02 22.9099 60.02H22.5899C22.4599 60.1 22.3399 60.18 22.2199 60.26V60.62H22.9199H22.9099Z" fill="white"/>
<path d="M27.7901 61.6899C27.7901 61.3699 27.7401 61.0799 27.6201 60.8099C27.5101 60.5499 27.3301 60.3399 27.0901 60.1799C26.8501 60.0199 26.5401 59.9399 26.1701 59.9399C25.8001 59.9399 25.4901 60.0199 25.2501 60.1799C25.0101 60.3399 24.8301 60.5499 24.7301 60.8099C24.6201 61.0699 24.5601 61.3699 24.5601 61.6899C24.5601 62.0099 24.6101 62.3099 24.7301 62.5699C24.8401 62.8299 25.0101 63.0399 25.2501 63.1999C25.4901 63.3599 25.8001 63.4299 26.1701 63.4299C26.5401 63.4299 26.8501 63.3499 27.0901 63.1999C27.3301 63.0399 27.5101 62.8299 27.6201 62.5699C27.7301 62.3099 27.7901 62.0199 27.7901 61.6899ZM26.8201 62.5399C26.7001 62.7199 26.4801 62.8099 26.1801 62.8099C25.8801 62.8099 25.6601 62.7199 25.5401 62.5399C25.4201 62.3599 25.3601 62.0799 25.3601 61.6899C25.3601 61.2999 25.4201 61.0199 25.5401 60.8399C25.6601 60.6599 25.8701 60.5699 26.1801 60.5699C26.4901 60.5699 26.7001 60.6599 26.8201 60.8399C26.9401 61.0199 27.0001 61.3099 27.0001 61.6899C27.0001 62.0699 26.9401 62.3499 26.8201 62.5399Z" fill="white"/>
<path d="M30.3399 62.75H29.6799V60.67C29.6799 60.47 29.6199 60.31 29.4999 60.19C29.3799 60.07 29.1899 60.02 28.9199 60.02H28.2199V60.62H28.9199V62.75H28.1699V63.35H30.3399V62.75Z" fill="white"/>
<path d="M33.8001 61.6899C33.8001 61.3699 33.7501 61.0799 33.6301 60.8099C33.5201 60.5499 33.3401 60.3399 33.1001 60.1799C32.8601 60.0199 32.5501 59.9399 32.1801 59.9399C31.8101 59.9399 31.5001 60.0199 31.2601 60.1799C31.0201 60.3399 30.8401 60.5499 30.7401 60.8099C30.6301 61.0699 30.5701 61.3699 30.5701 61.6899C30.5701 62.0099 30.6201 62.3099 30.7401 62.5699C30.8501 62.8299 31.0201 63.0399 31.2601 63.1999C31.5001 63.3599 31.8101 63.4299 32.1801 63.4299C32.5501 63.4299 32.8601 63.3499 33.1001 63.1999C33.3401 63.0399 33.5201 62.8299 33.6301 62.5699C33.7401 62.3099 33.8001 62.0199 33.8001 61.6899ZM32.8301 62.5399C32.7101 62.7199 32.4901 62.8099 32.1901 62.8099C31.8901 62.8099 31.6701 62.7199 31.5501 62.5399C31.4301 62.3599 31.3701 62.0799 31.3701 61.6899C31.3701 61.2999 31.4301 61.0199 31.5501 60.8399C31.6701 60.6599 31.8801 60.5699 32.1901 60.5699C32.5001 60.5699 32.7101 60.6599 32.8301 60.8399C32.9501 61.0199 33.0101 61.3099 33.0101 61.6899C33.0101 62.0699 32.9501 62.3499 32.8301 62.5399Z" fill="white"/>
<path d="M34.23 60.62H34.41C34.51 60.42 34.63 60.22 34.76 60.02H34.24V60.62H34.23Z" fill="white"/>
<path d="M24.4801 58.9902C24.0601 59.1902 23.6701 59.4002 23.3101 59.6002C23.6201 59.5802 23.8801 59.5102 24.0901 59.3702C24.2501 59.2702 24.3801 59.1402 24.4801 58.9902Z" fill="white"/>
<path d="M25.1599 58.93V59.53H27.3299V58.93H26.6699V58.02C26.4099 58.13 26.1599 58.24 25.9099 58.34V58.93H25.1599Z" fill="white"/>
<path d="M27.7401 58.7399C27.8501 58.9999 28.0201 59.2099 28.2601 59.3699C28.5001 59.5299 28.8101 59.5999 29.1801 59.5999C29.5501 59.5999 29.8601 59.5199 30.1001 59.3699C30.3401 59.2099 30.5201 58.9999 30.6301 58.7399C30.7401 58.4799 30.8001 58.1899 30.8001 57.8599C30.8001 57.5299 30.7501 57.2499 30.6301 56.9799C30.5701 56.8399 30.4901 56.7199 30.4001 56.6099C30.1601 56.6899 29.9201 56.7799 29.6801 56.8599C29.7401 56.8999 29.7801 56.9499 29.8201 56.9999C29.9401 57.1799 30.0001 57.4699 30.0001 57.8499C30.0001 58.2299 29.9401 58.5099 29.8201 58.6999C29.7001 58.8899 29.4801 58.9699 29.1801 58.9699C28.8801 58.9699 28.6601 58.8799 28.5401 58.6999C28.4201 58.5199 28.3601 58.2399 28.3601 57.8499C28.3601 57.6399 28.3801 57.4599 28.4101 57.3099C28.1201 57.4199 27.8501 57.5199 27.5801 57.6299C27.5801 57.6999 27.5801 57.7699 27.5801 57.8499C27.5801 58.1699 27.6301 58.4699 27.7501 58.7299L27.7401 58.7399Z" fill="white"/>
<path d="M31.9199 56.7899V58.9199H31.1699V59.5199H33.3399V58.9199H32.6799V56.8399C32.6799 56.6399 32.6199 56.4799 32.4999 56.3599C32.3799 56.2399 32.1899 56.1899 31.9199 56.1899H31.6299C31.4899 56.2399 31.3599 56.2799 31.2199 56.3299V56.7899H31.9199Z" fill="white"/>
<path d="M36.1101 56.3499C35.8701 56.1899 35.5601 56.1099 35.1901 56.1099C34.8201 56.1099 34.5101 56.1899 34.2701 56.3499C34.0301 56.5099 33.8501 56.7199 33.7501 56.9799C33.6401 57.2399 33.5801 57.5399 33.5801 57.8599C33.5801 58.1799 33.6301 58.4799 33.7501 58.7399C33.8601 58.9999 34.0301 59.2099 34.2701 59.3699C34.4801 59.5099 34.7401 59.5799 35.0501 59.5999C35.2401 59.3499 35.4601 59.0999 35.7001 58.8399C35.5801 58.9299 35.4001 58.9799 35.1801 58.9799C34.8801 58.9799 34.6601 58.8899 34.5401 58.7099C34.4201 58.5299 34.3601 58.2499 34.3601 57.8599C34.3601 57.4699 34.4201 57.1899 34.5401 57.0099C34.6601 56.8299 34.8701 56.7399 35.1801 56.7399C35.4901 56.7399 35.7001 56.8299 35.8201 57.0099C35.9401 57.1899 36.0001 57.4799 36.0001 57.8599C36.0001 58.2399 35.9401 58.5199 35.8201 58.7099C35.8201 58.7099 35.8201 58.7099 35.8101 58.7199C36.1001 58.4199 36.4301 58.1299 36.7901 57.8299C36.7901 57.5199 36.7301 57.2399 36.6301 56.9899C36.5201 56.7299 36.3401 56.5199 36.1001 56.3599L36.1101 56.3499Z" fill="white"/>
<path d="M38.51 56.3702C38.39 56.2502 38.2 56.2002 37.93 56.2002H37.23V56.8002H37.93V57.0002C38.15 56.8502 38.38 56.6902 38.63 56.5402C38.6 56.4802 38.56 56.4202 38.51 56.3802V56.3702Z" fill="white"/>
<path d="M36.3399 55.6999V55.0999H35.6799V54.9399C35.1599 55.0899 34.6599 55.2399 34.1799 55.3899V55.6999H36.3499H36.3399Z" fill="white"/>
<path d="M37.2699 55.5498C37.5099 55.7098 37.8199 55.7798 38.1899 55.7798C38.5599 55.7798 38.8699 55.6998 39.1099 55.5498C39.3499 55.3898 39.5299 55.1798 39.6399 54.9198C39.7499 54.6598 39.8099 54.3698 39.8099 54.0398C39.8099 53.9598 39.8099 53.8798 39.7999 53.7998C39.5399 53.8698 39.2799 53.9398 39.0199 54.0098C39.0199 54.0198 39.0199 54.0298 39.0199 54.0398C39.0199 54.4198 38.9599 54.6998 38.8399 54.8898C38.7199 55.0798 38.4999 55.1598 38.1999 55.1598C37.8999 55.1598 37.6799 55.0698 37.5599 54.8898C37.4899 54.7798 37.4399 54.6398 37.4099 54.4598C37.1599 54.5298 36.9099 54.5998 36.6699 54.6698C36.6899 54.7598 36.7199 54.8398 36.7599 54.9298C36.8699 55.1898 37.0399 55.3998 37.2799 55.5598L37.2699 55.5498Z" fill="white"/>
<path d="M40.1899 55.0998V55.6198C40.6599 55.3698 41.1599 55.1098 41.6899 54.8598V53.2998C41.4299 53.3698 41.1799 53.4298 40.9299 53.4998V55.1098H40.1799L40.1899 55.0998Z" fill="white"/>
<path d="M42.6001 54.0402C42.6001 54.1802 42.6001 54.3102 42.6301 54.4302C42.8801 54.3202 43.1301 54.2102 43.3901 54.1002C43.3901 54.0802 43.3901 54.0602 43.3901 54.0402C43.3901 53.6502 43.4501 53.3702 43.5701 53.1902C43.6901 53.0102 43.9001 52.9202 44.2101 52.9202C44.5201 52.9202 44.7301 53.0102 44.8501 53.1902C44.9001 53.2602 44.9401 53.3602 44.9701 53.4602C45.2001 53.3702 45.4301 53.2802 45.6701 53.1902C45.6701 53.1902 45.6701 53.1702 45.6601 53.1602C45.5501 52.9002 45.3701 52.6902 45.1301 52.5302C45.0901 52.5102 45.0601 52.4902 45.0201 52.4702C44.2801 52.6502 43.5501 52.8302 42.8401 53.0102C42.8101 53.0602 42.7901 53.1102 42.7601 53.1702C42.6501 53.4302 42.5901 53.7302 42.5901 54.0502L42.6001 54.0402Z" fill="white"/>
<path d="M46.25 52.3799V52.9799H46.27C46.67 52.8299 47.08 52.6899 47.51 52.5399C47.39 52.4299 47.2 52.3799 46.95 52.3799H46.25Z" fill="white"/>
<path d="M48.1299 51.7202C47.7999 51.8002 47.4699 51.8702 47.1499 51.9502C47.1699 51.9502 47.1899 51.9502 47.2099 51.9502C47.5799 51.9502 47.8899 51.8702 48.1299 51.7202Z" fill="white"/>
<path d="M49.52 51.8799C50.12 51.6899 50.73 51.5099 51.36 51.3199V51.2799H50.7V51.1299C50.19 51.2399 49.69 51.3599 49.2 51.4699V51.8699H49.52V51.8799Z" fill="white"/>
<path d="M51.82 51.1902C52.06 51.1202 52.3 51.0502 52.54 50.9902C52.5 50.9202 52.47 50.8402 52.45 50.7402C52.2 50.8002 51.95 50.8502 51.71 50.9102C51.73 50.9702 51.75 51.0402 51.78 51.1002C51.79 51.1302 51.81 51.1702 51.82 51.2002V51.1902Z" fill="white"/>
<path d="M54.83 50.3802C54.83 50.3302 54.83 50.2802 54.83 50.2202C54.56 50.2802 54.3 50.3302 54.04 50.3902C54.04 50.4602 54.03 50.5202 54.02 50.5802C54.29 50.5102 54.56 50.4402 54.83 50.3702V50.3802Z" fill="white"/>
<path d="M56.72 49.9098V49.8198C56.47 49.8698 56.21 49.9298 55.96 49.9798V50.0898C56.21 50.0298 56.46 49.9698 56.72 49.8998V49.9098Z" fill="white"/>
<path d="M60.51 49.0398C60.51 49.0398 60.51 49.0398 60.51 49.0298C60.24 49.0798 59.97 49.1398 59.71 49.1898C59.71 49.1898 59.73 49.1998 59.74 49.2098C60 49.1498 60.26 49.0998 60.52 49.0398H60.51Z" fill="white"/>
<path d="M58.5299 49.4802C58.5299 49.4802 58.5399 49.4502 58.5499 49.4302C58.2599 49.4902 57.9799 49.5502 57.6899 49.6102C57.6899 49.6302 57.6799 49.6502 57.6699 49.6802C57.9499 49.6102 58.2299 49.5502 58.5199 49.4802H58.5299Z" fill="white"/>
<path d="M62.43 48.6401C62.04 48.7201 61.66 48.8001 61.28 48.8701C61.66 48.8001 62.05 48.7201 62.44 48.6401H62.43Z" fill="white"/>
<path d="M29.49 67.8502C29.37 67.7302 29.18 67.6802 28.91 67.6802H28.21V68.0102C28.68 68.1202 29.16 68.2402 29.67 68.3502V68.3302C29.67 68.1302 29.61 67.9702 29.49 67.8502Z" fill="white"/>
<path d="M35.5 67.8502C35.38 67.7302 35.19 67.6802 34.92 67.6802H34.22V68.2802H34.92V69.3502C35.17 69.3902 35.42 69.4302 35.68 69.4702V68.3302C35.68 68.1302 35.62 67.9702 35.5 67.8502Z" fill="white"/>
<path d="M74.1501 46.5C19.2801 57.45 31.2801 69 62.1501 72H80.1501C59.1501 71 23.2801 61.45 74.1501 46.5Z" fill="#9BC631"/>
<path d="M92.3799 65.2798V71.5598C97.1499 71.8598 101.46 71.9898 104.73 71.9898V65.4398C101.36 65.4398 96.9499 65.4398 92.3799 65.2798Z" fill="white"/>
<path d="M80.15 64.2902C68.78 62.6202 62.49 58.5202 80.15 48.4902V45.4902C28.55 60.2002 54.11 67.6202 80.15 70.5102V64.2902Z" fill="white"/>
<path d="M143.83 72.0002C143.25 71.6202 142.7 71.1902 142.21 70.7302C140.57 69.2002 139.35 67.4402 138.55 65.4502H135.15H114.96V56.6802H133.37V50.5602H114.96V42.4902H134.99V35.9902H106.73V71.9902H135.15H143.83V72.0002Z" fill="white"/>
<path d="M149.68 65.0198C151.03 66.2098 153.06 66.8098 155.77 66.8098C158.48 66.8098 160.23 66.3998 161.35 65.5598C162.47 64.7298 163.03 63.5598 163.03 62.0398C163.03 60.7098 162.63 59.6698 161.84 58.9298C161.05 58.1898 159.84 57.7098 158.21 57.4998L150.25 56.4698C147.04 56.0698 144.57 55.0098 142.86 53.2798C141.15 51.5498 140.29 49.1998 140.29 46.2398C140.29 42.8498 141.56 40.1398 144.11 38.1198C146.65 36.0998 150.38 35.0898 155.29 35.0898C160.2 35.0898 164.2 36.1498 166.77 38.2798C169.33 40.4098 170.72 43.2098 170.94 46.6698H162.87C162.65 44.9398 161.91 43.5798 160.65 42.6098C159.39 41.6398 157.6 41.1498 155.29 41.1498C153.12 41.1498 151.46 41.5598 150.31 42.3698C149.15 43.1798 148.58 44.3098 148.58 45.7498C148.58 46.8698 148.92 47.7798 149.61 48.4798C150.29 49.1798 151.36 49.6098 152.8 49.7498L160.33 50.6698C167.66 51.4998 171.32 55.0198 171.32 61.2298C171.32 68.9898 166.1 72.8698 155.67 72.8698C150.18 72.8698 146.15 71.6698 143.57 69.2698C140.99 66.8698 139.63 63.8298 139.48 60.1498H147.49C147.6 62.2098 148.33 63.8298 149.68 65.0198Z" fill="white"/>
<path d="M82.15 70.7302C84.94 71.0202 87.72 71.2502 90.38 71.4302V42.4902H102.24V35.9902H70.25V42.4902H82.16V70.7202L82.15 70.7302Z" fill="white"/>
</svg>
